# xmcd
#
# Track frame offsets:
#	150
#	16902
#	31798
#	47966
#	62929
#	79283
#	92506
#	106534
#	122179
#	136899
#	152726
#	169711
#	182337
#	198182
#	216636
#	231783
#	250750
#	262271
#	279996
#	281707
#	284247
#	285925
#	287315
#	288981
#	291652
#	294470
#	299870
#
# Disc length: 4037 seconds
#
# Revision: 0
# Processed by: cddbd v1.5.2PL0 Copyright (c) Steve Scherf et al.
# Submitted via: audiograbber 1.83.01
#
DISCID=ad0fc31b
DTITLE=Various Artist - CDX Volume 67 - Oct 1993
DYEAR=1993
DGENRE=Country
TTITLE0=Restless Heart - Big Iron Horses
TTITLE1=Wylie and The Wild West Show - Black Boots and Blue Jeans
TTITLE2=Dwight Yoakam - Fast As You
TTITLE3=Rhonda Vincent - I'm Not Over You
TTITLE4=Doug Stone - I Never Knew Love
TTITLE5=Clay Walker - Live Until I Die
TTITLE6=John Brannen - Lonesome Side of Midnight
TTITLE7=Charlie Chase - My Wife (narrative song)
TTITLE8=Twister Alley - Nothing In Common But Love
TTITLE9=Asleep At The Wheel - Red Wing
TTITLE10=Boy Howdy - She'd Give Anything
TTITLE11=Gene Watson - Snake In The House
TTITLE12=Sawyer Brown - The Boys and Me
TTITLE13=Aaron Tippin - The Call of the Wild
TTITLE14=Tracy Byrd - Why Don't That Telephone Ring
TTITLE15=Travis Tritt - Worth Every Mile
TTITLE16=J R Williams - Semi - Diesel Blues
TTITLE17=John Brannen - Lonesome Side of Midnight (DT)
TTITLE18=Jeff Foxworthy - My Favorite Southern Word
TTITLE19=Jeff Foxworthy - Videos And Babies
TTITLE20=Jeff Foxworthy - Hemorrhoid Surgery
TTITLE21=Jeff Foxworthy - My Daughter And Uncle Harold
TTITLE22=Jeff Foxworthy - Dumb As A Brick
TTITLE23=Jeff Foxworthy - Child Proofing In The 90's
TTITLE24=Jeff Foxworthy - The Fashion Train
TTITLE25=Jeff Foxworthy - The Cops Are Coming
TTITLE26=Jeff Foxworthy - She Has A Boyfriend
EXTD=YEAR: 1993
EXTT0=
EXTT1=
EXTT2=
EXTT3=
EXTT4=
EXTT5=
EXTT6=
EXTT7=
EXTT8=
EXTT9=
EXTT10=
EXTT11=
EXTT12=
EXTT13=
EXTT14=
EXTT15=
EXTT16=
EXTT17=
EXTT18=
EXTT19=
EXTT20=
EXTT21=
EXTT22=
EXTT23=
EXTT24=
EXTT25=
EXTT26=
PLAYORDER=
